<?xml version="1.0" encoding="utf-8"?>
<!-- Generator: Adobe Illustrator 23.0.1, SVG Export Plug-In . SVG Version: 6.00 Build 0)  -->
<svg version="1.1" id="Layer_1"  width="40px" height="40px" fill="#e0bb86" xmlns="http://www.w3.org/2000/svg" xmlns:xlink="http://www.w3.org/1999/xlink" x="0px" y="0px"
	 viewBox="0 0 40 40" style="enable-background:new 0 0 40 40;" xml:space="preserve">
	<title>Oval</title>
	<desc>Created with Sketch.</desc>
		<svg id="Layer_1" y="2px" x="9px" fill="#e0bb86" width="30px" height="30px" data-name="Layer 1" xmlns="http://www.w3.org/2000/svg" viewBox="0 0 714.36 90.35"><title>arrow-left</title><polygon points="52.51 145.11 514.36 145.11 514.36 115.11 52.62 115.11 135.04 19.6 112.32 0 0 130.17 112.32 260.35 135.04 240.75 52.51 145.11"/></svg>
	<g id="Page-1">
		<path id="Oval" d="M20,39c10.5,0,19-8.5,19-19S30.5,1,20,1S1,9.5,1,20S9.5,39,20,39z M20,40C9,40,0,31,0,20S9,0,20,0s20,9,20,20
			S31,40,20,40z"/>
	</g>
</svg>
