<svg id="Layer_1" fill="#e0bb86" data-name="Layer 1" xmlns="http://www.w3.org/2000/svg" xmlns:xlink="http://www.w3.org/1999/xlink" viewBox="0 0 49.5 49.4">
    <defs>
    <style>.cls-1{fill:none;clip-rule:evenodd;}.cls-2{clip-path:url(#clip-path);}</style><clipPath id="clip-path" transform="translate(4.75 4.75)"><path class="cls-1" d="M39.3,37l-17-17,17-17a1.57,1.57,0,0,0,0-2.2,1.57,1.57,0,0,0-2.2,0l-17,17L3,.7A1.57,1.57,0,0,0,.8.7a1.57,1.57,0,0,0,0,2.2L17.8,20,.7,37a1.57,1.57,0,0,0,0,2.2,1.57,1.57,0,0,0,2.2,0L20,22.2l17,17a1.57,1.57,0,0,0,2.2,0A1.48,1.48,0,0,0,39.3,37Z"/></clipPath></defs><title>close</title><g class="cls-2"><rect width="49.5" height="49.4"/></g></svg>