<?xml version="1.0" encoding="UTF-8"?>
<svg width="1600px" height="969px" viewBox="0 0 1600 969" version="1.1" xmlns="http://www.w3.org/2000/svg" xmlns:xlink="http://www.w3.org/1999/xlink">
    <!-- Generator: Sketch 52.1 (67048) - http://www.bohemiancoding.com/sketch -->
    <title>logo</title>
    <desc>Created with Sketch.</desc>
    <style>
        g{fill:#e0bb86;}
    </style>
    <g id="Page-1" stroke="none" stroke-width="1" fill="none" fill-rule="evenodd">
        <g id="logo" fill="#000000" fill-rule="nonzero">
            <path d="M1368,804 L1496,804 C1489.4,769.3 1462.8,748 1433.1,748 C1400.2,748 1373.6,771.5 1368,804 Z M1522,825.3 L1368.2,825.3 C1371,859.5 1397.4,885.9 1433.6,885.9 C1460.6,885.9 1483,870.5 1493.7,846.9 L1517.9,846.9 C1504.1,884 1472.6,906.9 1433.6,906.9 C1383,906.9 1344,868.6 1344,817.1 C1344,774.7 1375.1,726.9 1433.6,726.9 C1498.7,727 1522.3,781 1522,825.3 Z M1221.2,748 C1183.2,748 1156,778 1156,815.7 C1156,853.1 1183.3,885 1222.5,885 C1261.1,885 1289,854.4 1289,816.7 C1289,777 1258.3,748 1221.2,748 Z M1311,731.1 L1311,877.7 C1311,943.4 1269.6,969 1225.1,969 C1181.9,969 1149.9,943.7 1138.3,906.2 L1161.5,906.2 C1173.1,934.3 1200.4,948.1 1224.8,948.1 C1285,948.1 1287.8,896.8 1287.8,877.8 L1287.8,868.4 L1287.2,868.4 C1275.9,891.5 1253.4,906.2 1222.3,906.2 C1170.9,906.2 1133,865.6 1133,817.1 C1133,766.8 1170.6,727.1 1221.1,727.1 C1252.4,727.1 1275.9,740.9 1288.5,764.3 L1289.1,764.3 L1289.1,731.2 L1311,731.2 L1311,731.1 Z M1045,903 L1045,731.8 L1067,731.8 L1067,756.5 L1067.6,756.5 C1077,738 1095.9,727.4 1117,728 L1117,751.2 C1095,752.5 1068.3,766.9 1068.3,801.6 L1068.3,903 L1045,903 Z M859,804 L987,804 C980.4,769.3 953.8,748 924.1,748 C891.2,748 864.6,771.5 859,804 Z M1014,825.3 L860.2,825.3 C863,859.5 889.4,885.9 925.6,885.9 C952.6,885.9 975,870.5 985.7,846.9 L1009.9,846.9 C996.1,884 964.6,906.9 925.6,906.9 C875,906.9 836,868.6 836,817.1 C836,774.7 867.1,726.9 925.6,726.9 C990.7,727 1014.3,781 1014,825.3 Z M779,709 L779,670 L802,670 L802,709 L779,709 Z M779,902 L779,731 L802,731 L802,902 L779,902 Z M645,852.3 L668.3,852.3 C666.7,869.9 678.7,885.9 699.5,885.9 C719.3,885.9 729.7,871.4 729.7,856.1 C729.7,835.1 712.7,829.1 696.3,823.4 C678.4,817.4 651.3,808 651.3,775.3 C651.3,748.3 669.9,726.9 701.1,726.9 C729.4,726.9 749,747.3 748.6,773.7 L725.3,773.7 C725.6,758.3 714.9,747.9 700.4,747.9 C684,747.9 674.6,758.9 674.6,773.3 C674.6,793.1 692.2,799.4 708.3,804.4 C728.8,811 753,819.8 753,852.1 C753,883.5 732.8,906.8 697.6,906.8 C661.7,907 645,880.9 645,852.3 Z M467,902 L467,731.1 L489,731.1 L489,755.8 L489.6,755.8 C502.8,736.4 523.2,727 545.9,727 C584.9,727 621,751.1 621,812 L621,902 L597.7,902 L597.7,812 C597.7,799.5 596.8,747.9 543,747.9 C519.1,747.9 490.2,760.1 490.2,808.2 L490.2,902 L467,902 Z M345.5,748 C306.9,748 279,778 279,816.7 C279,855.4 306.9,885 345.5,885 C384.1,885 412,855.4 412,816.7 C412,778 384.1,748 345.5,748 Z M344,727 C395,727 434,766 434,817.2 C434,868.4 394.7,907 344,907 C293.3,907 254,868.4 254,817.2 C254,766 293,727 344,727 Z M228.1,729.3 L200.4,729.3 C194.1,719.6 171.1,687 121.1,687 C62.6,687 23.3,732.4 23.3,785.4 C23.3,842.4 67.3,885 122.7,885 C151,885 182.5,871.5 201.3,841.4 L229,841.4 C207.3,881.8 168.3,905.9 122.7,905.9 C54.4,906 0,856.2 0,785.4 C0,716.5 53.5,666 120.8,666 C169.2,666 208.6,689.2 228.1,729.3 Z M925,560.7 L950.7,560.7 C939.1,586.1 914.4,615 867.4,615 C808.9,615 776,569.8 776,524.8 C776,483.6 807.6,435 867.4,435 C907.2,435 937.5,457.3 951,491.2 L925,491.2 C907.8,457.3 875.2,456 867.4,456 C827.6,456 799.2,486.5 799.2,524.5 C799.2,563.8 830.2,593.9 867.4,593.9 C890.9,594 912.8,582.3 925,560.7 Z M720,418 L720,379 L743,379 L743,418 L720,418 Z M720,611 L720,440 L743,440 L743,611 L720,611 Z M590.2,457 C552.2,457 525,487 525,524.7 C525,562.1 552.3,594 591.5,594 C630.1,594 658,563.4 658,525.7 C658,486 627.3,457 590.2,457 Z M680,440.1 L680,586.7 C680,652.4 638.6,678 594.1,678 C550.9,678 518.9,652.7 507.3,615.2 L530.5,615.2 C542.1,643.3 569.4,657.1 593.8,657.1 C654,657.1 656.8,605.8 656.8,586.8 L656.8,577.4 L656.2,577.4 C644.9,600.5 622.4,615.2 591.3,615.2 C539.9,615.2 502,574.6 502,526.1 C502,475.8 539.6,436.1 590.1,436.1 C621.4,436.1 644.9,449.9 657.5,473.3 L658.1,473.3 L658.1,440.2 L680,440.2 L680,440.1 Z M379,457 C341.7,457 311,486.6 311,526.3 C311,565.3 343,594 379.6,594 C417.2,594 447,564 447,526.6 C447,487.9 417.9,457 379,457 Z M469,439.1 L469,610.9 L447.1,610.9 L447.1,578.9 L446.5,578.9 C436.8,593.7 417.1,615 379.8,615 C328.4,615 288,577.3 288,523.9 C288,483.1 317.7,435 379.1,435 C393.8,435 425.8,437.2 446.4,468.9 L447,468.9 L447,439.1 L469,439.1 Z M11,611 L11,379 L46.7,379 L132,576.5 L217.3,379 L253,379 L253,611 L229.8,611 L229.8,405 L141.7,611 L122.3,611 L34.2,405 L34.2,611 L11,611 Z" id="SVGID_1_"></path>
            <path d="M1475.90664,478.177618 C1509.21532,514.348543 1516.99347,568.972455 1495.70265,617.303613 C1476.19864,661.6201 1436.49584,690.11026 1392.09633,691.671259 C1297.4606,694.999113 1209.62635,654.447604 1131.08165,571.134491 C1107.19872,545.830135 1085.5042,522.501974 1066.83689,502.294623 L1022.81278,454.36571 C1008.0592,438.113096 999.552089,428.659935 999.552089,428.659935 C978.804134,409.656861 910.308178,343.838178 918.710346,313.72817 C919.833711,309.712183 923.307982,302.544939 933.965493,299.6497 C957.089348,293.360569 1011.33778,298.942031 1067.37821,308.234034 C1088.50928,286.531955 1142.09319,169.909763 1177.77378,75.0132677 C1188.53219,46.3763605 1209.25423,24.6982552 1237.68813,12.3044693 C1293.53541,-12.0388394 1374.25779,-0.0115583261 1464.98417,46.1664972 C1474.61206,51.0669936 1483.57556,56.1479821 1491.87504,61.3367394 C1587.49315,121.116287 1598.3892,197.049127 1599.35444,220.380703 C1600.52666,248.608638 1592.07602,272.522924 1576.76236,284.351588 C1544.52537,309.25227 1464.7026,429.255438 1449.00856,453.104155 C1459.03306,461.353555 1468.12539,469.725478 1475.90664,478.177618 Z M1330.66623,586.909301 C1341.45834,582.608832 1349.44228,574.137179 1355.06847,561.007667 C1370.02827,525.992892 1351.68451,492.017853 1300.52281,460.020483 C1218.09967,408.471701 1084.84959,383.556164 1052.95465,387.306351 C1049.83817,387.674589 1048.53122,388.503729 1048.40727,388.828692 C1046.64109,393.554021 1054.41326,413.343386 1095.64744,454.487318 L1148.88352,502.649573 C1148.93481,502.693846 1148.99968,502.73442 1149.05908,502.783765 C1152.7661,505.85838 1156.48955,508.906681 1160.21606,511.895909 C1160.97486,512.504638 1161.73914,513.104596 1162.49794,513.713325 C1181.2878,528.660296 1199.95264,542.236245 1216.53673,552.9863 C1216.78001,553.138451 1217.02592,553.304445 1217.2692,553.456596 C1220.95852,555.837137 1224.51325,558.035928 1227.97635,560.128629 C1228.5738,560.490091 1229.19559,560.866769 1229.77683,561.218088 C1233.49153,563.431554 1237.08237,565.482185 1240.4549,567.286505 C1279.9543,588.416506 1310.30292,595.017578 1330.66623,586.909301 Z M1104.53125,309.59375 L1124.45312,309.59375 C1140.64323,279.572917 1154.8099,251.867188 1166.95312,226.476562 C1185.16797,188.390625 1221.99609,101.089844 1239.10547,75.7304688 C1256.21484,50.3710937 1288.78125,42.916339 1288.78125,38.6445312 C1288.78125,34.3727235 1257.08898,41.4046202 1250.0625,44.9296875 C1223.37891,58.3164063 1210.55078,90.1445313 1193.75391,132.019531 C1182.55599,159.936198 1152.8151,219.127604 1104.53125,309.59375 Z" id="Combined-Shape"></path>
        </g>
    </g>
</svg>